# xmcd
#
# Track frame offsets:
#	150
#	14447
#	27531
#	37806
#	50616
#	64549
#	78300
#	89617
#	99999
#	111829
#	122748
#	136614
#	150533
#	163285
#	173303
#	192700
#	204840
#	215899
#	244069
#	273070
#
# Disc length: 4053 seconds
#
# Revision: 1
# Processed by: cddbd v1.5PL3 Copyright (c) Steve Scherf et al.
# Submitted via: EasyCDDAExtractor 7.0.0.1
#
DISCID=0b0fd314
DTITLE=Ray Charles - 20 Golden Classics
DYEAR=2000
DGENRE=Blues
TTITLE0=Some Day (Blues Is My Middle Name)
TTITLE1=Baby Won't You Please Come Home
TTITLE2=Ain't That Fine
TTITLE3=Don't Put All Your Dreams In One Basket
TTITLE4=Late In The Evening Blues
TTITLE5=This Love Of Mine
TTITLE6=She's On The Ball
TTITLE7=Sittin' On Top Of The World
TTITLE8=Can't You See Darlin'
TTITLE9=Sentimental Blues, A
TTITLE10=I'm Going Down To The River
TTITLE11=Kiss Me Baby
TTITLE12=Heartbreaker
TTITLE13=I'm Movin' On
TTITLE14=Talkin' About You
TTITLE15=Tell Me How Do You Feel
TTITLE16=You Be My Baby
TTITLE17=I Got A Woman
TTITLE18=What'd I Say
TTITLE19=Georgia On My Mind
EXTD=
EXTT0=
EXTT1=
EXTT2=
EXTT3=
EXTT4=
EXTT5=
EXTT6=
EXTT7=
EXTT8=
EXTT9=
EXTT10=
EXTT11=
EXTT12=
EXTT13=
EXTT14=
EXTT15=
EXTT16=
EXTT17=
EXTT18=
EXTT19=
PLAYORDER=
